<?xml version="1.0" encoding="UTF-8" standalone="no"?>
<!-- Created with Inkscape (http://www.inkscape.org/) -->

<svg
   width="256"
   height="256"
   viewBox="0 0 67.733332 67.733332"
   version="1.1"
   id="svg270"
   inkscape:version="1.2.2 (b0a8486541, 2022-12-01)"
   sodipodi:docname="icon.svg"
   inkscape:export-filename="icon.png"
   inkscape:export-xdpi="96"
   inkscape:export-ydpi="96"
   xmlns:inkscape="http://www.inkscape.org/namespaces/inkscape"
   xmlns:sodipodi="http://sodipodi.sourceforge.net/DTD/sodipodi-0.dtd"
   xmlns="http://www.w3.org/2000/svg"
   xmlns:svg="http://www.w3.org/2000/svg">
  <sodipodi:namedview
     id="namedview272"
     pagecolor="#ffffff"
     bordercolor="#000000"
     borderopacity="0.25"
     inkscape:showpageshadow="2"
     inkscape:pageopacity="0.0"
     inkscape:pagecheckerboard="0"
     inkscape:deskcolor="#d1d1d1"
     inkscape:document-units="mm"
     showgrid="false"
     inkscape:zoom="2.587745"
     inkscape:cx="85.402543"
     inkscape:cy="165.97463"
     inkscape:window-width="1574"
     inkscape:window-height="1288"
     inkscape:window-x="26"
     inkscape:window-y="23"
     inkscape:window-maximized="0"
     inkscape:current-layer="layer1" />
  <defs
     id="defs267" />
  <g
     inkscape:label="Ebene 1"
     inkscape:groupmode="layer"
     id="layer1">
    <g
       id="g2276"
       transform="matrix(1.0082744,0,0,1.0082804,-0.26726169,-0.29422055)">
      <path
         class="a"
         d="m 67.442533,33.880544 a 33.374807,33.374807 0 0 1 -1.377143,9.516822 c -0.100883,0.38068 -0.223939,0.75015 -0.358379,1.119629 A 33.551092,33.551092 0 0 1 45.609798,65.342041 4.0444038,4.0444038 0 0 1 45.217946,65.48761 c -0.235195,0.08958 -0.481495,0.179126 -0.727756,0.246324 l -0.391852,0.134356 a 32.160023,32.160023 0 0 1 -7.445512,1.477906 2.2238914,2.2238914 0 0 1 -0.391852,0.03343 c -0.235196,0.02243 -0.481495,0.03343 -0.727756,0.04477 -0.123142,0.011 -0.257497,0.011 -0.391852,0.011 -0.425459,0.02243 -0.850919,0.03343 -1.287571,0.03343 A 32.814479,32.814479 0 0 1 27.695852,66.897818 C 27.561496,66.87539 27.427141,66.853047 27.304,66.819448 A 5.2466587,5.2466587 0 0 1 26.576244,66.662707 1.6521206,1.6521206 0 0 1 26.184392,66.573123 33.545538,33.545538 0 0 1 2.0004631,44.516487 C 1.865981,44.147021 1.7429667,43.777534 1.6420839,43.396858 a 32.831116,32.831116 0 0 1 -1.3660132,-8.9565 C 0.2650684,34.261232 0.2650684,34.070892 0.2650684,33.880544 c 0,-0.19034 0,-0.38068 0.0110023,-0.559815 A 32.83031,32.83031 0 0 1 1.642012,24.363721 c 0.1008828,-0.38068 0.2239394,-0.75015 0.3583792,-1.119629 A 33.566498,33.566498 0 0 1 55.294524,8.0395693 c 0.03343,0.03343 0.07833,0.055985 0.11197,0.089584 a 2.9418741,2.9418741 0 0 1 0.279924,0.2463248 c 0.246325,0.2015116 0.492569,0.4142371 0.727756,0.626988 0.134356,0.1231412 0.268711,0.2463248 0.391852,0.3694661 A 33.44269,33.44269 0 0 1 67.442478,33.880552 Z"
         id="path397"
         style="fill:#01a650;stroke-width:1.11962" />
      <path
         class="b"
         d="M 40.179634,9.8085761 V 10.928205 H 29.240885 L 18.044619,24.363721 H 1.6420924 c 0.1008828,-0.38068 0.2239394,-0.75015 0.3583792,-1.119629 H 17.518311 L 28.714577,9.8085761 Z"
         id="path399"
         style="fill:#007d49;stroke-width:1.11962" />
      <path
         class="b"
         d="m 43.740133,6.460894 a 1.2172578,1.2172578 0 0 0 -0.201639,-0.011002 3.9209986,3.9209986 0 0 0 -3.873997,3.358879 3.5284576,3.5284576 0 0 0 0,1.119629 3.9209986,3.9209986 0 0 0 3.873997,3.358879 1.2172578,1.2172578 0 0 0 0.201596,-0.011 3.912355,3.912355 0 0 0 0,-7.8149934 z m -0.201639,6.706561 a 2.7990658,2.7990658 0 0 1 0,-5.5981288 1.2172578,1.2172578 0 0 1 0.201596,0.011002 2.7948336,2.7948336 0 0 1 0,5.5757398 1.2172578,1.2172578 0 0 1 -0.201596,0.011 z"
         id="path401"
         style="fill:#007d49;stroke-width:1.11962" />
      <path
         class="b"
         d="m 42.877996,17.657156 a 1.2172578,1.2172578 0 0 0 -0.201596,-0.011 3.9209986,3.9209986 0 0 0 -3.873998,3.358879 3.5284576,3.5284576 0 0 0 0,1.119625 3.9209986,3.9209986 0 0 0 3.873998,3.358879 1.2172578,1.2172578 0 0 0 0.201596,-0.011 3.912355,3.912355 0 0 0 0,-7.814993 z M 42.6764,24.363721 a 2.7990665,2.7990665 0 0 1 0,-5.598133 1.2172578,1.2172578 0 0 1 0.201596,0.011 2.7948336,2.7948336 0 0 1 0,5.57574 1.2172578,1.2172578 0 0 1 -0.201596,0.011 z"
         id="path403"
         style="fill:#007d49;stroke-width:1.11962" />
      <path
         class="b"
         d="m 28.065364,26.614168 a 1.2172578,1.2172578 0 0 0 -0.201638,-0.011 3.9162066,3.9162066 0 0 0 -0.559815,7.792599 2.3127785,2.3127785 0 0 0 0.391852,0.03343 0.84687413,0.84687413 0 0 0 0.167954,0.011 1.2172578,1.2172578 0 0 0 0.201596,-0.011 1.9388457,1.9388457 0 0 0 0.35821,-0.03343 1.5200047,1.5200047 0 0 0 0.391852,-0.07837 3.9118512,3.9118512 0 0 0 -0.750062,-7.703028 z m 0,6.695364 a 1.2172578,1.2172578 0 0 1 -0.201596,0.011 2.7990658,2.7990658 0 0 1 0,-5.598128 1.2172578,1.2172578 0 0 1 0.201596,0.011 2.7948336,2.7948336 0 0 1 0,5.575739 z"
         id="path405"
         style="fill:#007d49;stroke-width:1.11962" />
      <path
         class="b"
         d="m 16.006965,29.973047 a 1.2172578,1.2172578 0 0 0 -0.201596,-0.011 3.9209986,3.9209986 0 0 0 -3.873999,3.358879 3.5284576,3.5284576 0 0 0 0,1.119629 3.9209986,3.9209986 0 0 0 3.873999,3.358879 1.2172578,1.2172578 0 0 0 0.201596,-0.011 3.912355,3.912355 0 0 0 0,-7.814994 z m -0.201596,6.706561 a 2.7990658,2.7990658 0 0 1 0,-5.598129 1.2172578,1.2172578 0 0 1 0.201596,0.011 2.7948336,2.7948336 0 0 1 0,5.575739 1.2172578,1.2172578 0 0 1 -0.201596,0.011 z"
         id="path407"
         style="fill:#007d49;stroke-width:1.11962" />
      <path
         class="b"
         d="m 27.203232,49.006696 a 1.2172578,1.2172578 0 0 0 -0.201597,-0.011 3.9168112,3.9168112 0 0 0 -0.817328,7.747812 2.2005584,2.2005584 0 0 0 0.391852,0.0672 c 0.145569,0.011 0.279924,0.02243 0.425459,0.02243 a 1.2172578,1.2172578 0 0 0 0.201597,-0.011 0.15509063,0.15509063 0 0 0 0.100755,0 2.2069178,2.2069178 0 0 0 0.391852,-0.05598 3.912411,3.912411 0 0 0 -0.492569,-7.759008 z m 0.02243,6.695364 h -0.04477 a 0.96331529,0.96331529 0 0 1 -0.179126,0.011 2.7990665,2.7990665 0 0 1 0,-5.598133 1.2172578,1.2172578 0 0 1 0.201596,0.011 2.7957069,2.7957069 0 0 1 0.02243,5.57574 z"
         id="path409"
         style="fill:#007d49;stroke-width:1.11962" />
      <path
         class="b"
         d="m 54.779489,43.397366 h -0.04473 v 1.119629 h 0.04469 a 2.8243582,2.8243582 0 0 0 0,-1.119629 z m 0.727926,0 a 3.8991322,3.8991322 0 0 0 -3.672373,-3.347682 1.2172578,1.2172578 0 0 0 -0.201639,-0.011 3.9186936,3.9186936 0 0 0 0,7.837387 1.2172578,1.2172578 0 0 0 0.201596,-0.011 3.8991882,3.8991882 0 0 0 3.672378,-3.347682 3.5284576,3.5284576 0 0 0 0,-1.119629 z m -3.874008,3.358879 a 2.7990658,2.7990658 0 0 1 0,-5.598129 1.2172578,1.2172578 0 0 1 0.201597,0.011 2.7948336,2.7948336 0 0 1 0,5.575738 1.2172578,1.2172578 0 0 1 -0.201597,0.011 z"
         id="path411"
         style="fill:#007d49;stroke-width:1.11962" />
      <path
         class="b"
         d="m 56.806081,28.909403 a 1.5014189,1.5014189 0 0 0 -0.391852,-0.04477 v -0.011 a 0.15509063,0.15509063 0 0 0 -0.100755,0 1.2172578,1.2172578 0 0 0 -0.201512,-0.011 c -0.145569,0 -0.279924,0.011 -0.425459,0.02243 a 2.2067835,2.2067835 0 0 0 -0.391852,0.0672 3.9092761,3.9092761 0 0 0 -3.056692,3.269307 3.5284576,3.5284576 0 0 0 0,1.119625 3.9209986,3.9209986 0 0 0 3.873995,3.358879 1.2172578,1.2172578 0 0 0 0.201596,-0.011 3.912411,3.912411 0 0 0 0.492603,-7.759009 z m -0.694165,6.65058 a 2.7990665,2.7990665 0 0 1 0,-5.598133 1.2172578,1.2172578 0 0 1 0.201596,0.011 2.7948336,2.7948336 0 0 1 0,5.57574 1.2172578,1.2172578 0 0 1 -0.201596,0.011 z"
         id="path413"
         style="fill:#007d49;stroke-width:1.11962" />
      <path
         class="b"
         d="m 39.060005,21.004842 v 1.119625 H 36.26094 v 45.255295 c -0.235195,0.02243 -0.481495,0.03343 -0.727756,0.04477 -0.123142,0.011 -0.257497,0.011 -0.391852,0.011 v -46.4309 z"
         id="path415"
         style="fill:#007d49;stroke-width:1.11962" />
      <path
         class="b"
         d="m 12.188973,33.320729 v 1.119629 H 0.2761511 C 0.2651488,34.261232 0.2651488,34.070892 0.2651488,33.880544 c 0,-0.19034 0,-0.38068 0.0110023,-0.559815 z"
         id="path417"
         style="fill:#007d49;stroke-width:1.11962" />
      <path
         class="b"
         d="M 28.423557,33.880544 V 44.516995 H 2.0003743 C 1.8658921,44.147529 1.7428778,43.778042 1.6419951,43.397366 H 27.303907 v -9.516822 z"
         id="path419"
         style="fill:#007d49;stroke-width:1.11962" />
      <path
         class="b"
         d="m 27.303928,56.273067 v 10.54688 a 5.2466587,5.2466587 0 0 1 -0.727756,-0.15674 1.6521206,1.6521206 0 0 1 -0.391852,-0.08958 v -10.30056 z"
         id="path421"
         style="fill:#007d49;stroke-width:1.11962" />
      <path
         class="b"
         d="m 44.490194,65.733913 c 0.246325,-0.0672 0.492633,-0.15674 0.727757,-0.246325 V 33.320725 h 7.277568 v -1.119621 h -8.397198 v 33.667164 z"
         id="path423"
         style="fill:#007d49;stroke-width:1.11962" />
      <path
         class="b"
         d="M 56.414213,9.0024451 V 29.40204 H 55.294588 V 8.0395693 c 0.03343,0.03343 0.07833,0.055985 0.111969,0.089584 a 2.9418741,2.9418741 0 0 1 0.279925,0.2463248 c 0.246324,0.2015116 0.492569,0.4142371 0.727756,0.626988 z"
         id="path425"
         style="fill:#007d49;stroke-width:1.11962" />
      <path
         class="b"
         d="m 66.06539,43.397366 c -0.100883,0.38068 -0.223939,0.75015 -0.358379,1.119629 H 54.734752 v -1.119629 z"
         id="path427"
         style="fill:#007d49;stroke-width:1.11962" />
      <path
         class="c"
         d="M 40.571502,9.8085761 V 10.928205 H 29.632754 L 18.436487,24.363721 H 1.6420924 c 0.1008828,-0.38068 0.2239394,-0.75015 0.3583792,-1.119629 H 17.921478 L 29.11774,9.8085761 Z"
         id="path429"
         style="fill:#82df5d;stroke-width:1.11962" />
      <path
         class="c"
         d="m 43.93038,6.4496971 a 1.0834624,1.0834624 0 0 0 -0.190256,0.011002 3.900028,3.900028 0 0 0 -3.683657,3.347682 3.5178659,3.5178659 0 0 0 0,1.1196299 3.9000952,3.9000952 0 0 0 3.683568,3.347682 1.0834624,1.0834624 0 0 0 0.19034,0.011 3.9186937,3.9186937 0 0 0 0,-7.8373875 z m 0,1.1196291 a 2.7990658,2.7990658 0 0 1 0,5.5981288 1.0834624,1.0834624 0 0 1 -0.190256,-0.011 2.7940051,2.7940051 0 0 1 0,-5.5757394 1.0834624,1.0834624 0 0 1 0.190256,-0.011002 z"
         id="path431"
         style="fill:#82df5d;stroke-width:1.11962" />
      <path
         class="c"
         d="m 43.079465,17.645963 a 1.2139772,1.2139772 0 0 0 -0.201469,0.011 3.8988971,3.8988971 0 0 0 -3.672372,3.347686 3.5178659,3.5178659 0 0 0 0,1.119625 3.8989643,3.8989643 0 0 0 3.672372,3.347682 1.2139772,1.2139772 0 0 0 0.201469,0.011 3.9186921,3.9186921 0 0 0 0,-7.837383 z m 0,1.119625 a 2.7990665,2.7990665 0 0 1 0,5.598133 1.2139772,1.2139772 0 0 1 -0.201469,-0.011 2.7948224,2.7948224 0 0 1 0,-5.575739 1.2139772,1.2139772 0 0 1 0.201469,-0.011 z"
         id="path433"
         style="fill:#82df5d;stroke-width:1.11962" />
      <path
         class="c"
         d="m 28.255611,26.602971 a 1.0834624,1.0834624 0 0 0 -0.190255,0.011 3.9115377,3.9115377 0 0 0 -0.761436,7.703028 2.2057198,2.2057198 0 0 0 0.391851,0.07833 2.0593847,2.0593847 0 0 0 0.369551,0.03343 1.0834624,1.0834624 0 0 0 0.190255,0.01143 0.84687413,0.84687413 0 0 0 0.167955,-0.011 2.3127785,2.3127785 0 0 0 0.391851,-0.03343 3.9162066,3.9162066 0 0 0 -0.559814,-7.792599 z m 0,1.119629 a 2.7990658,2.7990658 0 0 1 0,5.598129 1.0834624,1.0834624 0 0 1 -0.190255,-0.011 2.7940051,2.7940051 0 0 1 0,-5.575739 1.0834624,1.0834624 0 0 1 0.190255,-0.011 z"
         id="path435"
         style="fill:#82df5d;stroke-width:1.11962" />
      <path
         class="c"
         d="m 16.208435,29.96185 a 1.2139772,1.2139772 0 0 0 -0.20147,0.011 3.8988971,3.8988971 0 0 0 -3.672373,3.347682 3.5178659,3.5178659 0 0 0 0,1.11963 3.8989643,3.8989643 0 0 0 3.672373,3.347682 1.2139772,1.2139772 0 0 0 0.20147,0.011 3.9186936,3.9186936 0 0 0 0,-7.837387 z m 0,1.119629 a 2.7990658,2.7990658 0 1 1 0,5.598129 1.2139772,1.2139772 0 0 1 -0.20147,-0.011 2.7948224,2.7948224 0 0 1 0,-5.575739 1.2139772,1.2139772 0 0 1 0.20147,-0.011 z"
         id="path437"
         style="fill:#82df5d;stroke-width:1.11962" />
      <path
         class="c"
         d="m 27.404697,48.995499 a 1.2139772,1.2139772 0 0 0 -0.20147,0.011 3.9111234,3.9111234 0 0 0 -1.018856,7.624653 2.2579168,2.2579168 0 0 0 0.391851,0.11197 2.9135028,2.9135028 0 0 0 0.627056,0.07837 0.15509063,0.15509063 0 0 0 0.100756,0 v 0.011 h 0.100756 a 2.5283178,2.5283178 0 0 0 0.291095,-0.011 3.9184906,3.9184906 0 0 0 -0.291095,-7.826186 z m 0,1.119625 a 2.7990665,2.7990665 0 1 1 0,5.598133 0.96040424,0.96040424 0 0 1 -0.179042,-0.011 h -0.04477 a 2.7957069,2.7957069 0 0 1 0.02243,-5.57574 1.2139772,1.2139772 0 0 1 0.201427,-0.011 z"
         id="path439"
         style="fill:#82df5d;stroke-width:1.11962" />
      <path
         class="c"
         d="m 55.910383,43.397366 a 3.920853,3.920853 0 0 0 -3.87391,-3.358879 1.2139772,1.2139772 0 0 0 -0.201469,0.011 3.912355,3.912355 0 0 0 0,7.814993 1.2139772,1.2139772 0 0 0 0.201469,0.011 3.920853,3.920853 0 0 0 3.87391,-3.358879 3.5178659,3.5178659 0 0 0 0,-1.11963 z m -3.87391,-2.23925 a 2.8177971,2.8177971 0 0 1 2.743084,2.23925 2.8243582,2.8243582 0 0 1 0,1.119629 2.8177971,2.8177971 0 0 1 -2.743084,2.23925 1.2139772,1.2139772 0 0 1 -0.201469,-0.011 2.7948224,2.7948224 0 0 1 0,-5.575738 1.2139772,1.2139772 0 0 1 0.201469,-0.011 z"
         id="path441"
         style="fill:#82df5d;stroke-width:1.11962" />
      <path
         class="c"
         d="m 53.715912,32.760919 a 2.7994577,2.7994577 0 0 1 2.597612,-2.787872 1.2172578,1.2172578 0 0 0 -0.201596,-0.011 2.7990665,2.7990665 0 0 0 0,5.598133 1.2172578,1.2172578 0 0 0 0.201596,-0.011 2.7995137,2.7995137 0 0 1 -2.59759,-2.787868 z m 3.090169,-3.907497 a 2.5283178,2.5283178 0 0 0 -0.291096,-0.011 0.30901687,0.30901687 0 0 0 -0.100756,0.011 0.15509063,0.15509063 0 0 0 -0.100755,0 2.9134692,2.9134692 0 0 0 -0.626988,0.07837 2.2580624,2.2580624 0 0 0 -0.391852,0.11197 3.9054805,3.9054805 0 0 0 -2.653516,3.157346 3.5178659,3.5178659 0 0 0 0,1.119625 3.8989643,3.8989643 0 0 0 3.672373,3.347682 1.2139772,1.2139772 0 0 0 0.201469,0.011 3.9184906,3.9184906 0 0 0 0.291096,-7.826186 z m -0.492569,1.119625 a 1.2139772,1.2139772 0 0 1 0.201469,-0.011 2.7990665,2.7990665 0 0 1 0,5.598133 1.2139772,1.2139772 0 0 1 -0.201469,-0.011 2.7948224,2.7948224 0 0 1 0,-5.57574 z"
         id="path443"
         style="fill:#82df5d;stroke-width:1.11962" />
      <path
         class="c"
         d="m 39.451877,21.004842 v 1.119625 h -2.799068 v 45.221708 a 2.2238914,2.2238914 0 0 1 -0.391852,0.03343 c -0.235195,0.02243 -0.481495,0.03343 -0.727756,0.04477 V 21.004842 Z"
         id="path445"
         style="fill:#82df5d;stroke-width:1.11962" />
      <path
         class="c"
         d="m 12.580845,33.320729 v 1.119629 H 0.2761511 C 0.2651488,34.261232 0.2651488,34.070892 0.2651488,33.880544 c 0,-0.19034 0,-0.38068 0.0110023,-0.559815 z"
         id="path447"
         style="fill:#82df5d;stroke-width:1.11962" />
      <path
         class="c"
         d="M 28.815426,33.880544 V 44.516995 H 2.0003743 C 1.8658921,44.147529 1.7428778,43.778042 1.6419951,43.397366 H 27.69578 v -9.516822 z"
         id="path449"
         style="fill:#82df5d;stroke-width:1.11962" />
      <path
         class="c"
         d="m 27.695801,56.273067 v 10.625255 c -0.134355,-0.02243 -0.26871,-0.04477 -0.391852,-0.07837 A 5.2466587,5.2466587 0 0 1 26.576193,66.663211 V 56.273067 Z"
         id="path451"
         style="fill:#82df5d;stroke-width:1.11962" />
      <path
         class="c"
         d="m 52.887392,32.201104 v 1.119625 h -7.277573 v 32.021312 a 4.0444038,4.0444038 0 0 1 -0.391851,0.145569 c -0.235196,0.08958 -0.481496,0.179126 -0.727757,0.246324 V 32.201125 Z"
         id="path453"
         style="fill:#82df5d;stroke-width:1.11962" />
      <path
         class="c"
         d="M 56.806081,9.3719239 V 29.40204 H 55.686456 V 8.3754572 c 0.246325,0.2015116 0.492569,0.414237 0.727757,0.6269879 0.134355,0.1231413 0.26871,0.2463249 0.391851,0.3694661 z"
         id="path455"
         style="fill:#82df5d;stroke-width:1.11962" />
      <path
         class="c"
         d="m 66.06539,43.397366 c -0.100883,0.38068 -0.223939,0.75015 -0.358379,1.119629 H 55.12662 v -1.119629 z"
         id="path457"
         style="fill:#82df5d;stroke-width:1.11962" />
    </g>
    <g
       id="g2402"
       transform="translate(-0.52859736,-4.1291302)"
       style="fill:#263173;fill-opacity:0.89999998">
      <path
         d="m 16.599908,44.391018 c -7.4512301,0 -13.5138441,-6.062608 -13.5138441,-13.513837 v -0.0355 c 0,-2.993577 0.981091,-5.759062 2.639716,-7.989568 l -0.02535,0.0355 9.8393751,-15.3686835 c 0.226413,-0.350521 0.617184,-0.580293 1.059911,-0.580293 0.442747,0 0.831826,0.228061 1.056552,0.575222 l 0.0034,0.005 9.839375,15.3686825 c 1.633466,2.195289 2.614551,4.960774 2.614551,7.954351 v 0.03676 -0.0017 c 0,7.45123 -6.062608,13.513838 -13.513837,13.513838 z"
         id="path4"
         style="fill:#263173;fill-opacity:0.89999998;stroke-width:1.67707"
         sodipodi:nodetypes="csscccscccscccc" />
    </g>
  </g>
</svg>
